<?xml version="1.0" encoding="UTF-8" standalone="no"?>
<!-- Created with Inkscape (http://www.inkscape.org/) -->

<svg
   xmlns:dc="http://purl.org/dc/elements/1.1/"
   xmlns:cc="http://creativecommons.org/ns#"
   xmlns:rdf="http://www.w3.org/1999/02/22-rdf-syntax-ns#"
   xmlns:svg="http://www.w3.org/2000/svg"
   xmlns="http://www.w3.org/2000/svg"
   xmlns:sodipodi="http://sodipodi.sourceforge.net/DTD/sodipodi-0.dtd"
   xmlns:inkscape="http://www.inkscape.org/namespaces/inkscape"
   width="128"
   height="128"
   viewBox="0 0 33.866644 33.866663"
   version="1.1"
   id="svg8"
   inkscape:version="0.92.3 (2405546, 2018-03-11)"
   sodipodi:docname="x-text-rubble.svg">
  <defs
     id="defs2" />
  <sodipodi:namedview
     id="base"
     pagecolor="#ffffff"
     bordercolor="#666666"
     borderopacity="1.0"
     inkscape:pageopacity="0.0"
     inkscape:pageshadow="2"
     inkscape:zoom="4.011304"
     inkscape:cx="-3.4060455"
     inkscape:cy="58.266845"
     inkscape:document-units="px"
     inkscape:current-layer="layer1"
     showgrid="false"
     inkscape:window-width="1366"
     inkscape:window-height="714"
     inkscape:window-x="0"
     inkscape:window-y="26"
     inkscape:window-maximized="1"
     units="px"
     fit-margin-left="0"
     fit-margin-right="64"
     fit-margin-top="0"
     fit-margin-bottom="0" />
  <metadata
     id="metadata5">
    <rdf:RDF>
      <cc:Work
         rdf:about="">
        <dc:format>image/svg+xml</dc:format>
        <dc:type
           rdf:resource="http://purl.org/dc/dcmitype/StillImage" />
        <dc:title></dc:title>
      </cc:Work>
    </rdf:RDF>
  </metadata>
  <g
     inkscape:label="Layer 1"
     inkscape:groupmode="layer"
     id="layer1"
     transform="translate(-0.10672496,-263.3034)">
    <path
       style="fill:#bfae6b;fill-opacity:1;stroke:#000000;stroke-width:0.21552354px;stroke-linecap:butt;stroke-linejoin:miter;stroke-opacity:1"
       d="m 7.8336145,281.00678 c -0.3072679,-0.32473 -0.7083868,-0.54924 -1.1820391,-0.75221 -0.296241,-0.29539 -0.5240699,-0.7152 -0.8089308,-1.07595 -0.2447019,-0.3764 -0.5798399,-0.76835 -0.8029391,-1.18079 -0.093356,-0.15842 -0.2556134,-0.23149 -0.2686443,-0.43003 -0.2944609,-0.28419 -0.4041471,-0.77864 -0.4846633,-1.20878 -0.00871,-0.38403 -0.3638914,-1.00693 -0.052627,-1.26285 0.402089,-0.18978 0.659856,-0.25161 0.9920577,-0.46045 0.3136997,-0.29258 0.6071298,-0.32382 0.9421868,-0.50686 0.9771613,-0.39961 1.9772049,-0.7997 3.0425422,-0.87221 0.6071343,-0.10942 1.2246324,-0.1356 1.8258804,-0.27895 0.35558,-0.0112 1.06403,-0.2184 1.178768,-0.23317 0.303483,-0.0456 1.033251,-0.18043 0.945087,-0.17395 0.317891,0.0855 0.625398,0.31989 0.852164,0.43003 0.108412,0.41625 0.353953,0.72635 0.457865,1.15478 0.236509,0.70516 0.552534,1.39088 0.675886,2.12859 -0.07401,-0.0261 0.172614,0.67283 0.228175,0.91804 0.311775,0.91437 0.546781,1.85322 0.752493,2.79597 0.05797,0.48754 0.210616,1.03166 -0.205071,1.38918 -0.33575,-0.032 -0.665062,0.0304 -0.995955,0.049 -1.580542,-0.006 -3.161835,0.0117 -4.741823,-0.01 -0.6141338,-0.0191 -1.2132675,-0.14166 -1.81312,-0.25903 -0.224928,0.0309 -0.375661,-0.002 -0.5372925,-0.16064 z"
       id="path29"
       inkscape:connector-curvature="0" />
    <path
       style="fill:#d3cba2;fill-opacity:1;stroke:#000000;stroke-width:0.21552354px;stroke-linecap:butt;stroke-linejoin:miter;stroke-opacity:1"
       d="m 8.8544663,282.08136 c -0.081196,0.46272 -0.05413,0.92084 -0.3637407,1.31583 -0.1582283,0.2351 -0.4247396,0.94126 -0.4437791,0.79192 -0.053229,0.35934 -0.1972229,0.49579 -0.3745201,0.84751 -0.1242407,0.40275 -0.3057452,0.79197 -0.4835605,1.18207 -0.1180057,0.39809 -0.449008,0.98244 -0.2997485,1.2902 0.1729896,-8.2e-4 -0.00745,-3.6e-4 0.2997487,-6.2e-4 0.4028591,0.10551 0.5218793,0.0569 0.9397423,-0.0281 0.2419769,-0.0991 0.8316523,-0.21778 0.9189121,-0.18694 0.2008277,-0.0241 0.7448751,0.38234 1.1060145,0.51473 0.623904,0.30088 1.202331,0.69051 1.843037,0.95205 0.450573,0.19081 0.800643,0.25913 1.156218,0.52136 0.494745,0.20646 1.065287,0.34684 1.611874,0.48362 0.457505,0.19774 1.109789,0.25415 1.343276,0.4782 0.09283,0.30222 0.09823,0.33532 0.32048,0.32793 0.05757,0.0252 0.208258,-0.0913 0.377949,-0.16129 0.479459,-0.26722 0.923662,-0.66127 1.404079,-0.88364 0.08494,-0.19243 0.292339,-0.47599 0.422712,-0.78216 0.187243,-0.47642 0.528867,-0.90327 0.59102,-1.39698 0.09098,-0.29204 0.102772,-0.64578 0.107459,-0.9754 0.0059,-0.51858 0.05458,-1.033 0.09736,-1.5497 0.02207,-1.07339 0.0045,-2.1508 0.0101,-3.22401 -0.180107,0.0838 -0.569905,0.31966 -0.725345,0.25522 -0.169266,0.0389 -0.636771,0.0107 -0.88653,-0.0402 -0.616392,-0.10514 -1.291058,0.0903 -1.90473,-0.027 -0.524117,-0.16226 -1.692807,0.13559 -2.22569,-0.007 -0.949778,-0.002 -1.588503,-0.10482 -2.45147,0.0869 -0.906572,0.15134 -0.852458,-0.24821 -1.7461184,-0.0332 z"
       id="path31"
       inkscape:connector-curvature="0"
       sodipodi:nodetypes="ccccccccccccccccccccccccccccc" />
    <path
       style="fill:#a6a695;fill-opacity:1;stroke:#000000;stroke-width:0.21552354px;stroke-linecap:butt;stroke-linejoin:miter;stroke-opacity:1"
       d="m 25.779114,292.61225 c -0.469376,-0.19224 -0.888451,-0.44231 -1.40058,-0.44253 -0.581136,-0.17799 -1.181989,-0.26389 -1.781297,-0.38349 -0.509237,-0.0701 -1.30632,-0.31071 -0.935109,-0.96715 -0.0364,-0.37523 -0.134959,-1.07642 -0.127609,-1.25688 0.06956,0.30671 0.116389,0.64927 0.04253,0.15795 -0.263174,-1.81086 -0.652443,-3.59951 -1.073108,-5.37914 -0.04154,-0.25701 0.122416,0.48585 -0.01727,-0.0909 -0.186067,-0.74185 -0.355332,-1.48883 -0.543755,-2.22867 0.07225,-0.63604 1.001926,-0.66656 1.433532,-1.05983 0.629888,-0.38911 1.322094,-0.65374 1.954506,-1.03725 0.484715,-0.35196 0.899111,-0.79226 1.386597,-1.1446 0.585266,-0.15504 0.570995,0.82035 0.938693,1.12167 0.332993,0.48036 0.66393,0.97076 1.012009,1.42851 0.549344,0.29867 1.166802,0.5076 1.445553,1.12977 0.115894,0.18974 0.553544,0.78656 0.467701,0.70992 0.06632,0.2117 0.674868,0.9551 0.96093,1.35494 0.368885,0.48278 0.112067,1.12176 -0.0066,1.65924 -0.459343,1.30396 -0.899572,2.61551 -1.414661,3.89826 -0.293555,0.85674 -0.836062,1.6019 -1.267785,2.39331 -0.320718,0.24453 -0.707849,0.15116 -1.0743,0.13692 z"
       id="path39"
       inkscape:connector-curvature="0" />
    <path
       style="fill:#e8e9c6;fill-opacity:1;stroke:#000000;stroke-width:0.21552354px;stroke-linecap:butt;stroke-linejoin:miter;stroke-opacity:1"
       d="m 17.048059,280.96817 c -0.537788,-0.37533 0.153343,-1.19137 -0.308377,-1.83012 -0.46333,-0.64098 -0.391089,-1.45532 -0.574911,-2.2401 0.297429,-1.95857 -0.886926,-2.842 -1.049552,-4.17441 -0.123436,-0.81182 -0.379311,-1.81246 0.0635,-2.54204 0.676898,-0.45807 1.545616,-0.10743 2.289651,-0.36114 1.212766,-0.30425 2.380842,-0.79607 3.636144,-0.91609 0.459118,0.0107 1.550656,-0.39482 0.958379,0.3833 -0.368284,0.69169 -0.661149,1.49477 -0.523571,2.28063 0.317904,0.76739 1.294272,0.1274 1.908234,0.41775 0.754382,0.13493 1.512663,0.0399 2.257363,-0.10285 1.293205,-0.12478 2.579523,-0.39816 3.87671,-0.43862 0.249957,0.61489 -0.09239,1.44197 -0.123368,2.12802 -0.199871,0.89636 -0.776818,1.62658 -1.236077,2.39942 -0.472369,0.56202 -1.211272,0.78887 -1.807952,1.19265 -0.780932,0.53478 -1.653683,0.90137 -2.504096,1.31184 -0.935943,0.37479 -1.798435,0.91487 -2.707441,1.34183 -0.685186,0.15115 -1.08296,0.82746 -1.800611,0.8068 -0.829362,0.0939 -1.816235,0.71845 -2.354022,0.34313 z"
       id="path892"
       inkscape:connector-curvature="0"
       sodipodi:nodetypes="zsccccccccccccccccz" />
  </g>
</svg>
