<?xml version="1.0" encoding="UTF-8" standalone="no"?>
<!-- Created with Inkscape (http://www.inkscape.org/) -->

<svg
   xmlns:dc="http://purl.org/dc/elements/1.1/"
   xmlns:cc="http://creativecommons.org/ns#"
   xmlns:rdf="http://www.w3.org/1999/02/22-rdf-syntax-ns#"
   xmlns:svg="http://www.w3.org/2000/svg"
   xmlns="http://www.w3.org/2000/svg"
   xmlns:sodipodi="http://sodipodi.sourceforge.net/DTD/sodipodi-0.dtd"
   xmlns:inkscape="http://www.inkscape.org/namespaces/inkscape"
   width="32"
   height="32"
   viewBox="0 0 8.4666611 8.4666659"
   version="1.1"
   id="svg8"
   inkscape:version="0.92.3 (2405546, 2018-03-11)"
   sodipodi:docname="text-x-rubble.svg">
  <defs
     id="defs2" />
  <sodipodi:namedview
     id="base"
     pagecolor="#ffffff"
     bordercolor="#666666"
     borderopacity="1.0"
     inkscape:pageopacity="0.0"
     inkscape:pageshadow="2"
     inkscape:zoom="4.011304"
     inkscape:cx="103.85966"
     inkscape:cy="57.022468"
     inkscape:document-units="px"
     inkscape:current-layer="layer1"
     showgrid="false"
     inkscape:window-width="1366"
     inkscape:window-height="714"
     inkscape:window-x="0"
     inkscape:window-y="26"
     inkscape:window-maximized="1"
     units="px"
     fit-margin-left="0"
     fit-margin-right="64"
     fit-margin-top="0"
     fit-margin-bottom="0" />
  <metadata
     id="metadata5">
    <rdf:RDF>
      <cc:Work
         rdf:about="">
        <dc:format>image/svg+xml</dc:format>
        <dc:type
           rdf:resource="http://purl.org/dc/dcmitype/StillImage" />
        <dc:title></dc:title>
      </cc:Work>
    </rdf:RDF>
  </metadata>
  <g
     inkscape:label="Layer 1"
     inkscape:groupmode="layer"
     id="layer1"
     transform="translate(-0.10672496,-288.70339)">
    <path
       style="fill:#bfae6b;fill-opacity:1;stroke:#000000;stroke-width:0.05238498px;stroke-linecap:butt;stroke-linejoin:miter;stroke-opacity:1"
       d="m 2.0942768,293.1283 c -0.074684,-0.0789 -0.17218,-0.13349 -0.2873055,-0.18283 -0.072004,-0.0718 -0.1273801,-0.17383 -0.1966181,-0.26152 -0.059477,-0.0915 -0.1409355,-0.18675 -0.1951618,-0.287 -0.022691,-0.0385 -0.062129,-0.0563 -0.065297,-0.10452 -0.071571,-0.0691 -0.098232,-0.18926 -0.1178019,-0.29381 -0.00212,-0.0933 -0.088447,-0.24474 -0.012792,-0.30694 0.097731,-0.0461 0.1603841,-0.0612 0.2411288,-0.11192 0.076248,-0.0711 0.1475685,-0.0787 0.2290072,-0.1232 0.2375081,-0.0971 0.4805778,-0.19437 0.7395179,-0.212 0.1475696,-0.0266 0.2976581,-0.0329 0.4437972,-0.0678 0.086427,-0.003 0.2586223,-0.0531 0.2865103,-0.0567 0.073764,-0.0111 0.2511413,-0.0439 0.2297123,-0.0423 0.077266,0.0208 0.1520088,0.0777 0.2071264,0.10452 0.02635,0.10118 0.086031,0.17655 0.1112883,0.28068 0.057486,0.1714 0.1342984,0.33807 0.1642801,0.51737 -0.017989,-0.006 0.041956,0.16354 0.05546,0.22314 0.07578,0.22225 0.1329002,0.45045 0.1829006,0.67959 0.014091,0.1185 0.051192,0.25075 -0.049844,0.33765 -0.081607,-0.008 -0.1616496,0.007 -0.242076,0.0119 -0.3841653,-0.001 -0.7685134,0.003 -1.152544,-0.002 -0.1492709,-0.005 -0.2948959,-0.0344 -0.4406954,-0.063 -0.054671,0.007 -0.091308,-6e-4 -0.130594,-0.0391 z"
       id="path29"
       inkscape:connector-curvature="0" />
    <path
       style="fill:#d3cba2;fill-opacity:1;stroke:#000000;stroke-width:0.05238498px;stroke-linecap:butt;stroke-linejoin:miter;stroke-opacity:1"
       d="m 2.3424042,293.38949 c -0.019735,0.11247 -0.013157,0.22382 -0.08841,0.31983 -0.038459,0.0571 -0.1032369,0.22878 -0.1078646,0.19248 -0.012938,0.0873 -0.047937,0.12051 -0.091031,0.20599 -0.030198,0.0979 -0.074314,0.1925 -0.1175338,0.28732 -0.028682,0.0968 -0.1091355,0.23879 -0.072857,0.31359 0.042047,-2e-4 -0.00181,-9e-5 0.072857,-1.5e-4 0.097919,0.0256 0.1268476,0.0138 0.228413,-0.007 0.058815,-0.0241 0.2021408,-0.0529 0.2233501,-0.0454 0.048813,-0.006 0.1810487,0.0929 0.2688271,0.12511 0.1516454,0.0731 0.2922377,0.16784 0.4479672,0.23141 0.1095158,0.0464 0.1946036,0.063 0.2810294,0.12672 0.1202523,0.0502 0.2589278,0.0843 0.3917806,0.11755 0.111201,0.0481 0.2697447,0.0618 0.3264957,0.11623 0.022564,0.0735 0.023876,0.0815 0.077896,0.0797 0.013992,0.006 0.050619,-0.0222 0.091864,-0.0392 0.1165368,-0.065 0.2245044,-0.16073 0.3412742,-0.21478 0.020646,-0.0468 0.071056,-0.11569 0.102744,-0.19011 0.045511,-0.11579 0.128546,-0.21954 0.143653,-0.33955 0.022114,-0.071 0.02498,-0.15696 0.026119,-0.23707 0.00143,-0.12605 0.013265,-0.25108 0.023664,-0.37667 0.00537,-0.2609 0.00109,-0.52277 0.00246,-0.78363 -0.043777,0.0204 -0.1385207,0.0777 -0.1763019,0.062 -0.041142,0.009 -0.1547731,0.003 -0.2154794,-0.01 -0.1498196,-0.0256 -0.3138034,0.0219 -0.4629621,-0.007 -0.1273915,-0.0394 -0.4114522,0.033 -0.5409744,-0.002 -0.2308524,-6e-4 -0.3861003,-0.0255 -0.5958526,0.0211 -0.2203506,0.0368 -0.2071977,-0.0603 -0.42441,-0.008 z"
       id="path31"
       inkscape:connector-curvature="0"
       sodipodi:nodetypes="ccccccccccccccccccccccccccccc" />
    <path
       style="fill:#a6a695;fill-opacity:1;stroke:#000000;stroke-width:0.05238498px;stroke-linecap:butt;stroke-linejoin:miter;stroke-opacity:1"
       d="m 6.4560959,295.94912 c -0.1140863,-0.0467 -0.2159462,-0.10751 -0.3404239,-0.10756 -0.1412503,-0.0433 -0.2872933,-0.0641 -0.4329606,-0.0932 -0.1237748,-0.017 -0.3175132,-0.0755 -0.2272868,-0.23508 -0.00885,-0.0912 -0.032803,-0.26163 -0.031017,-0.30549 0.016906,0.0745 0.028289,0.15781 0.010337,0.0384 -0.063967,-0.44015 -0.1585823,-0.87489 -0.2608289,-1.30745 -0.010098,-0.0625 0.029754,0.11809 -0.0042,-0.0221 -0.045225,-0.18031 -0.086367,-0.36187 -0.1321646,-0.5417 0.017562,-0.15459 0.2435273,-0.16201 0.3484332,-0.2576 0.1531001,-0.0946 0.3213471,-0.15889 0.4750605,-0.25211 0.1178147,-0.0856 0.2185374,-0.19257 0.3370254,-0.27821 0.1422542,-0.0377 0.1387854,0.1994 0.2281579,0.27264 0.080937,0.11675 0.1613744,0.23595 0.2459781,0.34721 0.1335232,0.0726 0.283602,0.12338 0.3513551,0.2746 0.028169,0.0461 0.1345439,0.19118 0.113679,0.17255 0.01612,0.0515 0.1640328,0.23215 0.2335629,0.32933 0.089661,0.11735 0.027239,0.27266 -0.0016,0.4033 -0.1116477,0.31694 -0.2186493,0.63572 -0.3438464,0.94751 -0.071351,0.20823 -0.2032127,0.38935 -0.3081468,0.58171 -0.077954,0.0594 -0.1720492,0.0367 -0.2611186,0.0333 z"
       id="path39"
       inkscape:connector-curvature="0" />
    <path
       style="fill:#e8e9c6;fill-opacity:1;stroke:#000000;stroke-width:0.05238498px;stroke-linecap:butt;stroke-linejoin:miter;stroke-opacity:1"
       d="m 4.3339324,293.11892 c -0.1307141,-0.0912 0.037272,-0.28957 -0.074954,-0.44483 -0.1126166,-0.15579 -0.095058,-0.35373 -0.1397373,-0.54447 0.072293,-0.47605 -0.2155756,-0.69078 -0.2551033,-1.01463 -0.030002,-0.19732 -0.092195,-0.44054 0.015433,-0.61787 0.1645263,-0.11134 0.3756763,-0.0261 0.556521,-0.0878 0.2947738,-0.074 0.5786854,-0.19349 0.8837983,-0.22266 0.1115928,0.003 0.3769013,-0.096 0.2329428,0.0932 -0.089515,0.16812 -0.1606984,0.36332 -0.1272588,0.55433 0.077269,0.18652 0.3145847,0.031 0.4638139,0.10154 0.1833596,0.0328 0.3676666,0.01 0.5486729,-0.025 0.3143255,-0.0303 0.6269769,-0.0968 0.9422702,-0.10661 0.060754,0.14945 -0.022456,0.35048 -0.029986,0.51724 -0.04858,0.21786 -0.1888126,0.39535 -0.3004398,0.58319 -0.1148137,0.13661 -0.2944109,0.19175 -0.4394394,0.28989 -0.1898129,0.12998 -0.4019429,0.21909 -0.6086435,0.31886 -0.2274897,0.0911 -0.4371264,0.22236 -0.6580686,0.32614 -0.1665409,0.0367 -0.2632234,0.20112 -0.4376552,0.1961 -0.201584,0.0228 -0.4414527,0.17463 -0.5721668,0.0834 z"
       id="path892"
       inkscape:connector-curvature="0"
       sodipodi:nodetypes="zsccccccccccccccccz" />
  </g>
</svg>
