<?xml version="1.0" encoding="UTF-8" standalone="no"?>
<!-- Created with Inkscape (http://www.inkscape.org/) -->

<svg
   xmlns:dc="http://purl.org/dc/elements/1.1/"
   xmlns:cc="http://creativecommons.org/ns#"
   xmlns:rdf="http://www.w3.org/1999/02/22-rdf-syntax-ns#"
   xmlns:svg="http://www.w3.org/2000/svg"
   xmlns="http://www.w3.org/2000/svg"
   xmlns:sodipodi="http://sodipodi.sourceforge.net/DTD/sodipodi-0.dtd"
   xmlns:inkscape="http://www.inkscape.org/namespaces/inkscape"
   width="120"
   height="120"
   viewBox="0 0 31.749979 31.749997"
   version="1.1"
   id="svg8"
   inkscape:version="0.92.3 (2405546, 2018-03-11)"
   sodipodi:docname="rubble.svg">
  <defs
     id="defs2" />
  <sodipodi:namedview
     id="base"
     pagecolor="#ffffff"
     bordercolor="#666666"
     borderopacity="1.0"
     inkscape:pageopacity="0.0"
     inkscape:pageshadow="2"
     inkscape:zoom="4.011304"
     inkscape:cx="149.29515"
     inkscape:cy="57.022468"
     inkscape:document-units="px"
     inkscape:current-layer="layer1"
     showgrid="false"
     inkscape:window-width="1366"
     inkscape:window-height="714"
     inkscape:window-x="0"
     inkscape:window-y="26"
     inkscape:window-maximized="1"
     units="px"
     fit-margin-left="0"
     fit-margin-right="64"
     fit-margin-top="0"
     fit-margin-bottom="0" />
  <metadata
     id="metadata5">
    <rdf:RDF>
      <cc:Work
         rdf:about="">
        <dc:format>image/svg+xml</dc:format>
        <dc:type
           rdf:resource="http://purl.org/dc/dcmitype/StillImage" />
        <dc:title></dc:title>
      </cc:Work>
    </rdf:RDF>
  </metadata>
  <g
     inkscape:label="Layer 1"
     inkscape:groupmode="layer"
     id="layer1"
     transform="translate(-0.10672496,-265.42007)">
    <path
       style="fill:#bfae6b;fill-opacity:1;stroke:#000000;stroke-width:0.26458332px;stroke-linecap:butt;stroke-linejoin:miter;stroke-opacity:1"
       d="m 4.8150382,282.75276 c -0.3772115,-0.39864 -0.8696374,-0.67426 -1.4511075,-0.92343 -0.3636746,-0.36263 -0.6433644,-0.878 -0.9930684,-1.32087 -0.3004036,-0.46208 -0.7118293,-0.94325 -0.9857127,-1.44957 -0.1146065,-0.19448 -0.3137988,-0.28419 -0.329796,-0.52792 -0.36148913,-0.34888 -0.49614335,-0.95588 -0.59498754,-1.48394 -0.0106914,-0.47145 -0.44672427,-1.23614 -0.0646065,-1.55031 0.49361691,-0.23298 0.81005944,-0.30889 1.21788044,-0.56527 0.3851075,-0.35918 0.7453313,-0.39752 1.1566575,-0.62223 1.1995933,-0.49058 2.4272776,-0.98174 3.7351184,-1.07075 0.7453367,-0.13433 1.5033959,-0.16647 2.2415075,-0.34245 0.4365208,-0.0137 1.3062356,-0.26811 1.4470906,-0.28625 0.372566,-0.056 1.268452,-0.2215 1.160219,-0.21354 0.390253,0.10498 0.767758,0.3927 1.046143,0.52792 0.133089,0.511 0.434523,0.89169 0.562089,1.41764 0.290346,0.86567 0.678308,1.70748 0.829738,2.61312 -0.09086,-0.0321 0.211907,0.82599 0.280115,1.12702 0.382745,1.1225 0.671245,2.27507 0.923784,3.43241 0.07117,0.59852 0.258558,1.2665 -0.251752,1.7054 -0.412177,-0.0393 -0.816451,0.0373 -1.222665,0.0602 -1.940322,-0.007 -3.8815664,0.0144 -5.8212082,-0.0119 -0.7539295,-0.0234 -1.4894445,-0.17391 -2.2258418,-0.31799 -0.2761285,0.0379 -0.461173,-0.003 -0.6595968,-0.19721 z"
       id="path29"
       inkscape:connector-curvature="0" />
    <path
       style="fill:#d3cba2;fill-opacity:1;stroke:#000000;stroke-width:0.26458332px;stroke-linecap:butt;stroke-linejoin:miter;stroke-opacity:1"
       d="m 6.0682672,284.07195 c -0.099679,0.56805 -0.066451,1.13045 -0.4465392,1.61536 -0.194246,0.28861 -0.5214234,1.15552 -0.5447969,0.97218 -0.065345,0.44114 -0.2421169,0.60865 -0.4597724,1.04043 -0.1525217,0.49443 -0.3753422,0.97225 -0.5936337,1.45114 -0.1448674,0.48871 -0.551216,1.20608 -0.3679805,1.58389 0.2123674,-0.001 -0.00915,-4.4e-4 0.3679807,-7.5e-4 0.4945622,0.12952 0.6406751,0.0699 1.1536566,-0.0345 0.2970582,-0.12167 1.0209619,-0.26735 1.1280847,-0.2295 0.2465422,-0.0296 0.9144315,0.46938 1.3577779,0.6319 0.7659227,0.36937 1.4760185,0.84769 2.262569,1.16877 0.5531366,0.23424 0.9828936,0.31811 1.4194086,0.64003 0.607364,0.25346 1.307779,0.4258 1.978785,0.59371 0.561648,0.24275 1.362412,0.312 1.649047,0.58705 0.113966,0.37102 0.120593,0.41166 0.393431,0.40258 0.07067,0.031 0.255664,-0.11205 0.463983,-0.198 0.588598,-0.32805 1.133915,-0.8118 1.72369,-1.08479 0.104277,-0.23623 0.358884,-0.58433 0.518934,-0.9602 0.229866,-0.58487 0.649253,-1.10888 0.725555,-1.71498 0.11169,-0.35851 0.126166,-0.79277 0.13192,-1.19742 0.0072,-0.63663 0.067,-1.26815 0.119521,-1.90246 0.0271,-1.31773 0.0055,-2.64039 0.0124,-3.9579 -0.221105,0.10285 -0.699633,0.39242 -0.890456,0.31332 -0.207796,0.0477 -0.78172,0.0131 -1.088332,-0.0494 -0.756701,-0.12907 -1.584942,0.11081 -2.338305,-0.0331 -0.643422,-0.19919 -2.078141,0.16646 -2.732325,-0.008 -1.165977,-0.003 -1.950095,-0.12868 -3.0095006,0.10669 -1.1129354,0.18579 -1.0465032,-0.30471 -2.1435881,-0.0408 z"
       id="path31"
       inkscape:connector-curvature="0"
       sodipodi:nodetypes="ccccccccccccccccccccccccccccc" />
    <path
       style="fill:#a6a695;fill-opacity:1;stroke:#000000;stroke-width:0.26458332px;stroke-linecap:butt;stroke-linejoin:miter;stroke-opacity:1"
       d="m 26.845485,297 c -0.576221,-0.236 -1.09069,-0.543 -1.719395,-0.54327 -0.71342,-0.2185 -1.451046,-0.32396 -2.186775,-0.47078 -0.625155,-0.0861 -1.603679,-0.38144 -1.147968,-1.18731 -0.04469,-0.46064 -0.165681,-1.32144 -0.156657,-1.54298 0.08539,0.37653 0.142883,0.79706 0.05221,0.1939 -0.323081,-2.22306 -0.800959,-4.41886 -1.317381,-6.60359 -0.051,-0.31551 0.150282,0.59644 -0.0212,-0.11165 -0.228421,-0.91072 -0.436216,-1.82774 -0.66753,-2.73599 0.0887,-0.78082 1.229995,-0.81829 1.759848,-1.30108 0.77327,-0.47768 1.623043,-0.80255 2.399411,-1.27336 0.595052,-0.43207 1.103777,-0.9726 1.70223,-1.40515 0.71849,-0.19033 0.70097,1.00709 1.152368,1.377 0.408792,0.58971 0.815061,1.19174 1.242373,1.75369 0.674392,0.36665 1.432402,0.62314 1.774606,1.38693 0.142275,0.23294 0.679547,0.96561 0.574164,0.87152 0.08142,0.25989 0.828488,1.17251 1.179667,1.66337 0.452854,0.59268 0.137577,1.37711 -0.0081,2.03693 -0.563904,1.60078 -1.104342,3.21088 -1.736681,4.78563 -0.360378,1.05176 -1.026376,1.96654 -1.556372,2.9381 -0.393723,0.30019 -0.868977,0.18557 -1.318844,0.16809 z"
       id="path39"
       inkscape:connector-curvature="0" />
    <path
       style="fill:#e8e9c6;fill-opacity:1;stroke:#000000;stroke-width:0.26458332px;stroke-linecap:butt;stroke-linejoin:miter;stroke-opacity:1"
       d="m 16.126973,282.70536 c -0.660204,-0.46076 0.188249,-1.46256 -0.378573,-2.24671 -0.568798,-0.78688 -0.480113,-1.78659 -0.705778,-2.75001 0.365133,-2.4044 -1.088818,-3.48893 -1.288462,-5.12464 -0.151534,-0.99661 -0.465654,-2.22503 0.07795,-3.12068 0.830981,-0.56234 1.897446,-0.13189 2.810847,-0.44335 1.488828,-0.37351 2.922794,-0.97728 4.463842,-1.12462 0.563627,0.0131 1.903633,-0.48469 1.176535,0.47055 -0.452117,0.84914 -0.811647,1.83503 -0.642752,2.79977 0.390269,0.94207 1.588888,0.1564 2.342607,0.51285 0.926103,0.16564 1.856991,0.049 2.771208,-0.12627 1.587579,-0.15318 3.166702,-0.48879 4.759169,-0.53846 0.306854,0.75486 -0.113419,1.77021 -0.151451,2.61243 -0.245367,1.10039 -0.953645,1.99684 -1.517446,2.94559 -0.579895,0.68996 -1.486995,0.96845 -2.219497,1.46414 -0.958697,0.65651 -2.030112,1.10655 -3.074105,1.61046 -1.148993,0.4601 -2.207815,1.12312 -3.323738,1.64727 -0.841156,0.18555 -1.329475,1.01581 -2.210486,0.99045 -1.01815,0.11532 -2.229666,0.88199 -2.88987,0.42123 z"
       id="path892"
       inkscape:connector-curvature="0"
       sodipodi:nodetypes="zsccccccccccccccccz" />
  </g>
</svg>
